<svg xmlns="http://www.w3.org/2000/svg" width="900" height="900" viewBox="0 0 900 900"><rect width="900" height="900" fill="#02030a"/><line x1="426.8" y1="276.2" x2="270.7" y2="457.6" stroke="#b83333"/><line x1="381.7" y1="287.6" x2="315.4" y2="490.2" stroke="#b84133"/><line x1="336.3" y1="329.1" x2="397.8" y2="460.5" stroke="#b84e33"/><line x1="305.1" y1="384.8" x2="459.9" y2="381.3" stroke="#b85b33"/><line x1="298.4" y1="441.7" x2="459.6" y2="322.3" stroke="#b86833"/><line x1="325.8" y1="481.2" x2="422.1" y2="312.0" stroke="#b87533"/><line x1="384.0" y1="479.3" x2="379.9" y2="336.0" stroke="#b88233"/><line x1="441.2" y1="433.6" x2="348.8" y2="376.9" stroke="#b88f33"/><line x1="462.3" y1="379.8" x2="335.9" y2="422.6" stroke="#b89c33"/><line x1="447.2" y1="350.8" x2="346.4" y2="462.1" stroke="#b8a933"/><line x1="415.8" y1="351.8" x2="381.8" y2="481.3" stroke="#b8b633"/><line x1="383.9" y1="375.1" x2="432.5" y2="467.2" stroke="#acb833"/><line x1="361.0" y1="412.8" x2="472.6" y2="423.6" stroke="#9fb833"/><line x1="355.5" y1="457.1" x2="478.7" y2="377.9" stroke="#92b833"/><line x1="376.4" y1="495.5" x2="453.1" y2="356.9" stroke="#84b833"/><line x1="426.9" y1="506.0" x2="414.7" y2="366.6" stroke="#77b833"/><line x1="485.5" y1="471.2" x2="380.7" y2="400.1" stroke="#6ab833"/><line x1="510.7" y1="411.4" x2="363.2" y2="447.3" stroke="#5db833"/><line x1="490.6" y1="370.9" x2="372.5" y2="494.9" stroke="#50b833"/><line x1="449.2" y1="367.3" x2="414.0" y2="521.4" stroke="#43b833"/><line x1="410.5" y1="392.3" x2="472.6" y2="505.0" stroke="#36b833"/><line x1="387.5" y1="432.6" x2="509.9" y2="454.0" stroke="#33b83e"/><line x1="387.3" y1="475.2" x2="505.7" y2="407.8" stroke="#33b84b"/><line x1="412.5" y1="505.2" x2="475.8" y2="390.4" stroke="#33b858"/><line x1="454.8" y1="507.9" x2="442.1" y2="399.9" stroke="#33b865"/><line x1="493.0" y1="481.3" x2="417.4" y2="426.3" stroke="#33b872"/><line x1="507.2" y1="443.0" x2="407.8" y2="460.2" stroke="#33b87f"/><line x1="495.3" y1="414.6" x2="417.0" y2="492.6" stroke="#33b88d"/><line x1="468.3" y1="407.0" x2="446.0" y2="512.1" stroke="#33b89a"/><line x1="439.1" y1="420.1" x2="487.0" y2="506.1" stroke="#33b8a7"/><line x1="418.1" y1="449.4" x2="519.3" y2="473.1" stroke="#33b8b4"/><line x1="414.0" y1="487.4" x2="522.6" y2="432.1" stroke="#33aeb8"/><line x1="434.3" y1="521.6" x2="497.8" y2="408.0" stroke="#33a1b8"/><line x1="477.9" y1="532.9" x2="461.9" y2="410.7" stroke="#3394b8"/><line x1="524.0" y1="507.4" x2="431.5" y2="436.1" stroke="#3387b8"/><line x1="541.4" y1="460.1" x2="418.1" y2="474.6" stroke="#337ab8"/><line x1="523.2" y1="424.1" x2="429.0" y2="513.1" stroke="#336db8"/><line x1="488.2" y1="416.0" x2="463.8" y2="534.2" stroke="#3360b8"/><line x1="456.3" y1="432.1" x2="507.2" y2="524.0" stroke="#3353b8"/><line x1="438.4" y1="462.1" x2="533.1" y2="488.9" stroke="#3345b8"/><line x1="439.6" y1="494.9" x2="529.9" y2="453.5" stroke="#3338b8"/><line x1="459.8" y1="519.0" x2="507.3" y2="435.9" stroke="#3c33b8"/><line x1="491.9" y1="524.1" x2="480.2" y2="438.5" stroke="#4933b8"/><line x1="521.6" y1="507.2" x2="459.0" y2="456.4" stroke="#5633b8"/><line x1="534.3" y1="477.4" x2="449.7" y2="483.4" stroke="#6333b8"/><line x1="525.2" y1="450.6" x2="456.9" y2="511.9" stroke="#7033b8"/><line x1="501.0" y1="439.3" x2="481.9" y2="531.3" stroke="#7d33b8"/><line x1="473.4" y1="447.4" x2="518.0" y2="529.2" stroke="#8a33b8"/><line x1="453.4" y1="471.9" x2="546.3" y2="502.0" stroke="#9733b8"/><line x1="450.2" y1="505.5" x2="548.4" y2="464.9" stroke="#a433b8"/><circle cx="426.8" cy="276.2" r="2.5" fill="#ff442e"/><line x1="426.8" y1="276.2" x2="413.2" y2="275.4" stroke="#ad3926"/><circle cx="413.2" cy="275.4" r="2.3" fill="#ff4b2e"/><line x1="413.2" y1="275.4" x2="397.8" y2="279.5" stroke="#ad3d26"/><circle cx="397.8" cy="279.5" r="2.2" fill="#ff522e"/><line x1="397.8" y1="279.5" x2="381.7" y2="287.6" stroke="#ad4226"/><circle cx="381.7" cy="287.6" r="2.0" fill="#ff592e"/><line x1="381.7" y1="287.6" x2="365.7" y2="299.0" stroke="#ad4626"/><circle cx="365.7" cy="299.0" r="2.0" fill="#ff5f2e"/><line x1="365.7" y1="299.0" x2="350.4" y2="313.0" stroke="#ad4b26"/><circle cx="350.4" cy="313.0" r="1.9" fill="#ff662e"/><line x1="350.4" y1="313.0" x2="336.3" y2="329.1" stroke="#ad4f26"/><circle cx="336.3" cy="329.1" r="1.8" fill="#ff6d2e"/><line x1="336.3" y1="329.1" x2="323.8" y2="346.7" stroke="#ad5426"/><circle cx="323.8" cy="346.7" r="1.8" fill="#ff742e"/><line x1="323.8" y1="346.7" x2="313.3" y2="365.4" stroke="#ad5826"/><circle cx="313.3" cy="365.4" r="1.8" fill="#ff7b2e"/><line x1="313.3" y1="365.4" x2="305.1" y2="384.8" stroke="#ad5d26"/><circle cx="305.1" cy="384.8" r="1.8" fill="#ff822e"/><line x1="305.1" y1="384.8" x2="299.7" y2="404.4" stroke="#ad6126"/><circle cx="299.7" cy="404.4" r="1.9" fill="#ff892e"/><line x1="299.7" y1="404.4" x2="297.3" y2="423.6" stroke="#ad6526"/><circle cx="297.3" cy="423.6" r="1.9" fill="#ff902e"/><line x1="297.3" y1="423.6" x2="298.4" y2="441.7" stroke="#ad6a26"/><circle cx="298.4" cy="441.7" r="2.0" fill="#ff972e"/><line x1="298.4" y1="441.7" x2="303.5" y2="458.0" stroke="#ad6e26"/><circle cx="303.5" cy="458.0" r="2.1" fill="#ff9e2e"/><line x1="303.5" y1="458.0" x2="312.6" y2="471.5" stroke="#ad7326"/><circle cx="312.6" cy="471.5" r="2.2" fill="#ffa52e"/><line x1="312.6" y1="471.5" x2="325.8" y2="481.2" stroke="#ad7726"/><circle cx="325.8" cy="481.2" r="2.3" fill="#ffab2e"/><line x1="325.8" y1="481.2" x2="342.7" y2="486.1" stroke="#ad7c26"/><circle cx="342.7" cy="486.1" r="2.4" fill="#ffb22e"/><line x1="342.7" y1="486.1" x2="362.6" y2="485.5" stroke="#ad8026"/><circle cx="362.6" cy="485.5" r="2.4" fill="#ffb92e"/><line x1="362.6" y1="485.5" x2="384.0" y2="479.3" stroke="#ad8526"/><circle cx="384.0" cy="479.3" r="2.5" fill="#ffc02e"/><line x1="384.0" y1="479.3" x2="405.4" y2="467.8" stroke="#ad8926"/><circle cx="405.4" cy="467.8" r="2.5" fill="#ffc72e"/><line x1="405.4" y1="467.8" x2="425.0" y2="452.0" stroke="#ad8e26"/><circle cx="425.0" cy="452.0" r="2.5" fill="#ffce2e"/><line x1="425.0" y1="452.0" x2="441.2" y2="433.6" stroke="#ad9226"/><circle cx="441.2" cy="433.6" r="2.5" fill="#ffd52e"/><line x1="441.2" y1="433.6" x2="453.1" y2="414.4" stroke="#ad9726"/><circle cx="453.1" cy="414.4" r="2.5" fill="#ffdc2e"/><line x1="453.1" y1="414.4" x2="460.0" y2="396.0" stroke="#ad9b26"/><circle cx="460.0" cy="396.0" r="2.4" fill="#ffe32e"/><line x1="460.0" y1="396.0" x2="462.3" y2="379.8" stroke="#ada026"/><circle cx="462.3" cy="379.8" r="2.3" fill="#ffea2e"/><line x1="462.3" y1="379.8" x2="460.3" y2="366.6" stroke="#ada426"/><circle cx="460.3" cy="366.6" r="2.2" fill="#fff02e"/><line x1="460.3" y1="366.6" x2="455.0" y2="356.9" stroke="#ada826"/><circle cx="455.0" cy="356.9" r="2.1" fill="#fff72e"/><line x1="455.0" y1="356.9" x2="447.2" y2="350.8" stroke="#adad26"/><circle cx="447.2" cy="350.8" r="2.0" fill="#fffe2e"/><line x1="447.2" y1="350.8" x2="437.6" y2="348.1" stroke="#a9ad26"/><circle cx="437.6" cy="348.1" r="1.9" fill="#f9ff2e"/><line x1="437.6" y1="348.1" x2="426.9" y2="348.5" stroke="#a5ad26"/><circle cx="426.9" cy="348.5" r="1.8" fill="#f2ff2e"/><line x1="426.9" y1="348.5" x2="415.8" y2="351.8" stroke="#a0ad26"/><circle cx="415.8" cy="351.8" r="1.8" fill="#ebff2e"/><line x1="415.8" y1="351.8" x2="404.6" y2="357.5" stroke="#9cad26"/><circle cx="404.6" cy="357.5" r="1.7" fill="#e4ff2e"/><line x1="404.6" y1="357.5" x2="393.9" y2="365.3" stroke="#98ad26"/><circle cx="393.9" cy="365.3" r="1.7" fill="#ddff2e"/><line x1="393.9" y1="365.3" x2="383.9" y2="375.1" stroke="#93ad26"/><circle cx="383.9" cy="375.1" r="1.7" fill="#d6ff2e"/><line x1="383.9" y1="375.1" x2="374.8" y2="386.4" stroke="#8fad26"/><circle cx="374.8" cy="386.4" r="1.6" fill="#cfff2e"/><line x1="374.8" y1="386.4" x2="367.1" y2="399.1" stroke="#8aad26"/><circle cx="367.1" cy="399.1" r="1.6" fill="#c8ff2e"/><line x1="367.1" y1="399.1" x2="361.0" y2="412.8" stroke="#86ad26"/><circle cx="361.0" cy="412.8" r="1.6" fill="#c2ff2e"/><line x1="361.0" y1="412.8" x2="356.8" y2="427.3" stroke="#81ad26"/><circle cx="356.8" cy="427.3" r="1.6" fill="#bbff2e"/><line x1="356.8" y1="427.3" x2="354.9" y2="442.2" stroke="#7dad26"/><circle cx="354.9" cy="442.2" r="1.7" fill="#b4ff2e"/><line x1="354.9" y1="442.2" x2="355.5" y2="457.1" stroke="#78ad26"/><circle cx="355.5" cy="457.1" r="1.7" fill="#adff2e"/><line x1="355.5" y1="457.1" x2="359.1" y2="471.5" stroke="#74ad26"/><circle cx="359.1" cy="471.5" r="1.8" fill="#a6ff2e"/><line x1="359.1" y1="471.5" x2="366.0" y2="484.5" stroke="#6fad26"/><circle cx="366.0" cy="484.5" r="1.8" fill="#9fff2e"/><line x1="366.0" y1="484.5" x2="376.4" y2="495.5" stroke="#6bad26"/><circle cx="376.4" cy="495.5" r="1.9" fill="#98ff2e"/><line x1="376.4" y1="495.5" x2="390.3" y2="503.3" stroke="#66ad26"/><circle cx="390.3" cy="503.3" r="1.9" fill="#91ff2e"/><line x1="390.3" y1="503.3" x2="407.4" y2="507.1" stroke="#62ad26"/><circle cx="407.4" cy="507.1" r="2.0" fill="#8aff2e"/><line x1="407.4" y1="507.1" x2="426.9" y2="506.0" stroke="#5dad26"/><circle cx="426.9" cy="506.0" r="2.1" fill="#83ff2e"/><line x1="426.9" y1="506.0" x2="447.5" y2="499.5" stroke="#59ad26"/><circle cx="447.5" cy="499.5" r="2.1" fill="#7dff2e"/><line x1="447.5" y1="499.5" x2="467.7" y2="487.6" stroke="#55ad26"/><circle cx="467.7" cy="487.6" r="2.1" fill="#76ff2e"/><line x1="467.7" y1="487.6" x2="485.5" y2="471.2" stroke="#50ad26"/><circle cx="485.5" cy="471.2" r="2.1" fill="#6fff2e"/><line x1="485.5" y1="471.2" x2="499.2" y2="451.7" stroke="#4cad26"/><circle cx="499.2" cy="451.7" r="2.1" fill="#68ff2e"/><line x1="499.2" y1="451.7" x2="507.8" y2="431.1" stroke="#47ad26"/><circle cx="507.8" cy="431.1" r="2.1" fill="#61ff2e"/><line x1="507.8" y1="431.1" x2="510.7" y2="411.4" stroke="#43ad26"/><circle cx="510.7" cy="411.4" r="2.0" fill="#5aff2e"/><line x1="510.7" y1="411.4" x2="508.2" y2="394.1" stroke="#3ead26"/><circle cx="508.2" cy="394.1" r="1.9" fill="#53ff2e"/><line x1="508.2" y1="394.1" x2="501.2" y2="380.4" stroke="#3aad26"/><circle cx="501.2" cy="380.4" r="1.8" fill="#4cff2e"/><line x1="501.2" y1="380.4" x2="490.6" y2="370.9" stroke="#35ad26"/><circle cx="490.6" cy="370.9" r="1.7" fill="#45ff2e"/><line x1="490.6" y1="370.9" x2="477.8" y2="365.8" stroke="#31ad26"/><circle cx="477.8" cy="365.8" r="1.6" fill="#3eff2e"/><line x1="477.8" y1="365.8" x2="463.7" y2="364.7" stroke="#2cad26"/><circle cx="463.7" cy="364.7" r="1.6" fill="#37ff2e"/><line x1="463.7" y1="364.7" x2="449.2" y2="367.3" stroke="#28ad26"/><circle cx="449.2" cy="367.3" r="1.5" fill="#31ff2e"/><line x1="449.2" y1="367.3" x2="435.2" y2="373.2" stroke="#26ad29"/><circle cx="435.2" cy="373.2" r="1.5" fill="#2eff32"/><line x1="435.2" y1="373.2" x2="422.1" y2="381.6" stroke="#26ad2d"/><circle cx="422.1" cy="381.6" r="1.4" fill="#2eff39"/><line x1="422.1" y1="381.6" x2="410.5" y2="392.3" stroke="#26ad32"/><circle cx="410.5" cy="392.3" r="1.4" fill="#2eff40"/><line x1="410.5" y1="392.3" x2="400.6" y2="404.6" stroke="#26ad36"/><circle cx="400.6" cy="404.6" r="1.4" fill="#2eff47"/><line x1="400.6" y1="404.6" x2="392.9" y2="418.2" stroke="#26ad3b"/><circle cx="392.9" cy="418.2" r="1.4" fill="#2eff4e"/><line x1="392.9" y1="418.2" x2="387.5" y2="432.6" stroke="#26ad3f"/><circle cx="387.5" cy="432.6" r="1.4" fill="#2eff55"/><line x1="387.5" y1="432.6" x2="384.6" y2="447.2" stroke="#26ad44"/><circle cx="384.6" cy="447.2" r="1.4" fill="#2eff5c"/><line x1="384.6" y1="447.2" x2="384.6" y2="461.6" stroke="#26ad48"/><circle cx="384.6" cy="461.6" r="1.4" fill="#2eff62"/><line x1="384.6" y1="461.6" x2="387.3" y2="475.2" stroke="#26ad4d"/><circle cx="387.3" cy="475.2" r="1.5" fill="#2eff69"/><line x1="387.3" y1="475.2" x2="393.0" y2="487.4" stroke="#26ad51"/><circle cx="393.0" cy="487.4" r="1.5" fill="#2eff70"/><line x1="393.0" y1="487.4" x2="401.5" y2="497.6" stroke="#26ad56"/><circle cx="401.5" cy="497.6" r="1.6" fill="#2eff77"/><line x1="401.5" y1="497.6" x2="412.5" y2="505.2" stroke="#26ad5a"/><circle cx="412.5" cy="505.2" r="1.6" fill="#2eff7e"/><line x1="412.5" y1="505.2" x2="425.5" y2="509.6" stroke="#26ad5e"/><circle cx="425.5" cy="509.6" r="1.6" fill="#2eff85"/><line x1="425.5" y1="509.6" x2="439.9" y2="510.6" stroke="#26ad63"/><circle cx="439.9" cy="510.6" r="1.7" fill="#2eff8c"/><line x1="439.9" y1="510.6" x2="454.8" y2="507.9" stroke="#26ad67"/><circle cx="454.8" cy="507.9" r="1.7" fill="#2eff93"/><line x1="454.8" y1="507.9" x2="469.2" y2="501.8" stroke="#26ad6c"/><circle cx="469.2" cy="501.8" r="1.7" fill="#2eff9a"/><line x1="469.2" y1="501.8" x2="482.2" y2="492.7" stroke="#26ad70"/><circle cx="482.2" cy="492.7" r="1.7" fill="#2effa1"/><line x1="482.2" y1="492.7" x2="493.0" y2="481.3" stroke="#26ad75"/><circle cx="493.0" cy="481.3" r="1.7" fill="#2effa7"/><line x1="493.0" y1="481.3" x2="500.9" y2="468.6" stroke="#26ad79"/><circle cx="500.9" cy="468.6" r="1.7" fill="#2effae"/><line x1="500.9" y1="468.6" x2="505.7" y2="455.6" stroke="#26ad7e"/><circle cx="505.7" cy="455.6" r="1.7" fill="#2effb5"/><line x1="505.7" y1="455.6" x2="507.2" y2="443.0" stroke="#26ad82"/><circle cx="507.2" cy="443.0" r="1.6" fill="#2effbc"/><line x1="507.2" y1="443.0" x2="505.8" y2="431.6" stroke="#26ad87"/><circle cx="505.8" cy="431.6" r="1.6" fill="#2effc3"/><line x1="505.8" y1="431.6" x2="501.7" y2="422.0" stroke="#26ad8b"/><circle cx="501.7" cy="422.0" r="1.5" fill="#2effca"/><line x1="501.7" y1="422.0" x2="495.3" y2="414.6" stroke="#26ad90"/><circle cx="495.3" cy="414.6" r="1.5" fill="#2effd1"/><line x1="495.3" y1="414.6" x2="487.3" y2="409.6" stroke="#26ad94"/><circle cx="487.3" cy="409.6" r="1.4" fill="#2effd8"/><line x1="487.3" y1="409.6" x2="478.2" y2="407.1" stroke="#26ad99"/><circle cx="478.2" cy="407.1" r="1.4" fill="#2effdf"/><line x1="478.2" y1="407.1" x2="468.3" y2="407.0" stroke="#26ad9d"/><circle cx="468.3" cy="407.0" r="1.4" fill="#2effe6"/><line x1="468.3" y1="407.0" x2="458.3" y2="409.2" stroke="#26ada1"/><circle cx="458.3" cy="409.2" r="1.3" fill="#2effed"/><line x1="458.3" y1="409.2" x2="448.4" y2="413.7" stroke="#26ada6"/><circle cx="448.4" cy="413.7" r="1.3" fill="#2efff3"/><line x1="448.4" y1="413.7" x2="439.1" y2="420.1" stroke="#26adaa"/><circle cx="439.1" cy="420.1" r="1.3" fill="#2efffa"/><line x1="439.1" y1="420.1" x2="430.7" y2="428.4" stroke="#26acad"/><circle cx="430.7" cy="428.4" r="1.3" fill="#2efdff"/><line x1="430.7" y1="428.4" x2="423.6" y2="438.3" stroke="#26a7ad"/><circle cx="423.6" cy="438.3" r="1.2" fill="#2ef6ff"/><line x1="423.6" y1="438.3" x2="418.1" y2="449.4" stroke="#26a3ad"/><circle cx="418.1" cy="449.4" r="1.2" fill="#2eefff"/><line x1="418.1" y1="449.4" x2="414.4" y2="461.6" stroke="#269fad"/><circle cx="414.4" cy="461.6" r="1.3" fill="#2ee8ff"/><line x1="414.4" y1="461.6" x2="413.0" y2="474.4" stroke="#269aad"/><circle cx="413.0" cy="474.4" r="1.3" fill="#2ee1ff"/><line x1="413.0" y1="474.4" x2="414.0" y2="487.4" stroke="#2696ad"/><circle cx="414.0" cy="487.4" r="1.3" fill="#2edaff"/><line x1="414.0" y1="487.4" x2="417.9" y2="500.1" stroke="#2691ad"/><circle cx="417.9" cy="500.1" r="1.3" fill="#2ed3ff"/><line x1="417.9" y1="500.1" x2="424.6" y2="511.7" stroke="#268dad"/><circle cx="424.6" cy="511.7" r="1.4" fill="#2eccff"/><line x1="424.6" y1="511.7" x2="434.3" y2="521.6" stroke="#2688ad"/><circle cx="434.3" cy="521.6" r="1.4" fill="#2ec6ff"/><line x1="434.3" y1="521.6" x2="446.8" y2="528.9" stroke="#2684ad"/><circle cx="446.8" cy="528.9" r="1.4" fill="#2ebfff"/><line x1="446.8" y1="528.9" x2="461.6" y2="532.9" stroke="#267fad"/><circle cx="461.6" cy="532.9" r="1.5" fill="#2eb8ff"/><line x1="461.6" y1="532.9" x2="477.9" y2="532.9" stroke="#267bad"/><circle cx="477.9" cy="532.9" r="1.5" fill="#2eb1ff"/><line x1="477.9" y1="532.9" x2="494.6" y2="528.5" stroke="#2676ad"/><circle cx="494.6" cy="528.5" r="1.5" fill="#2eaaff"/><line x1="494.6" y1="528.5" x2="510.5" y2="519.8" stroke="#2672ad"/><circle cx="510.5" cy="519.8" r="1.6" fill="#2ea3ff"/><line x1="510.5" y1="519.8" x2="524.0" y2="507.4" stroke="#266dad"/><circle cx="524.0" cy="507.4" r="1.6" fill="#2e9cff"/><line x1="524.0" y1="507.4" x2="534.1" y2="492.4" stroke="#2669ad"/><circle cx="534.1" cy="492.4" r="1.5" fill="#2e95ff"/><line x1="534.1" y1="492.4" x2="540.0" y2="476.2" stroke="#2664ad"/><circle cx="540.0" cy="476.2" r="1.5" fill="#2e8eff"/><line x1="540.0" y1="476.2" x2="541.4" y2="460.1" stroke="#2660ad"/><circle cx="541.4" cy="460.1" r="1.5" fill="#2e87ff"/><line x1="541.4" y1="460.1" x2="538.7" y2="445.4" stroke="#265cad"/><circle cx="538.7" cy="445.4" r="1.4" fill="#2e80ff"/><line x1="538.7" y1="445.4" x2="532.3" y2="433.3" stroke="#2657ad"/><circle cx="532.3" cy="433.3" r="1.4" fill="#2e7aff"/><line x1="532.3" y1="433.3" x2="523.2" y2="424.1" stroke="#2653ad"/><circle cx="523.2" cy="424.1" r="1.3" fill="#2e73ff"/><line x1="523.2" y1="424.1" x2="512.2" y2="418.2" stroke="#264ead"/><circle cx="512.2" cy="418.2" r="1.3" fill="#2e6cff"/><line x1="512.2" y1="418.2" x2="500.3" y2="415.6" stroke="#264aad"/><circle cx="500.3" cy="415.6" r="1.2" fill="#2e65ff"/><line x1="500.3" y1="415.6" x2="488.2" y2="416.0" stroke="#2645ad"/><circle cx="488.2" cy="416.0" r="1.2" fill="#2e5eff"/><line x1="488.2" y1="416.0" x2="476.5" y2="419.1" stroke="#2641ad"/><circle cx="476.5" cy="419.1" r="1.2" fill="#2e57ff"/><line x1="476.5" y1="419.1" x2="465.8" y2="424.6" stroke="#263cad"/><circle cx="465.8" cy="424.6" r="1.2" fill="#2e50ff"/><line x1="465.8" y1="424.6" x2="456.3" y2="432.1" stroke="#2638ad"/><circle cx="456.3" cy="432.1" r="1.2" fill="#2e49ff"/><line x1="456.3" y1="432.1" x2="448.4" y2="441.1" stroke="#2633ad"/><circle cx="448.4" cy="441.1" r="1.2" fill="#2e42ff"/><line x1="448.4" y1="441.1" x2="442.4" y2="451.2" stroke="#262fad"/><circle cx="442.4" cy="451.2" r="1.2" fill="#2e3bff"/><line x1="442.4" y1="451.2" x2="438.4" y2="462.1" stroke="#262aad"/><circle cx="438.4" cy="462.1" r="1.2" fill="#2e35ff"/><line x1="438.4" y1="462.1" x2="436.6" y2="473.3" stroke="#2626ad"/><circle cx="436.6" cy="473.3" r="1.2" fill="#2e2eff"/><line x1="436.6" y1="473.3" x2="436.9" y2="484.4" stroke="#2b26ad"/><circle cx="436.9" cy="484.4" r="1.2" fill="#352eff"/><line x1="436.9" y1="484.4" x2="439.6" y2="494.9" stroke="#2f26ad"/><circle cx="439.6" cy="494.9" r="1.2" fill="#3c2eff"/><line x1="439.6" y1="494.9" x2="444.4" y2="504.5" stroke="#3426ad"/><circle cx="444.4" cy="504.5" r="1.2" fill="#432eff"/><line x1="444.4" y1="504.5" x2="451.2" y2="512.7" stroke="#3826ad"/><circle cx="451.2" cy="512.7" r="1.2" fill="#4a2eff"/><line x1="451.2" y1="512.7" x2="459.8" y2="519.0" stroke="#3d26ad"/><circle cx="459.8" cy="519.0" r="1.2" fill="#512eff"/><line x1="459.8" y1="519.0" x2="469.8" y2="523.2" stroke="#4126ad"/><circle cx="469.8" cy="523.2" r="1.3" fill="#582eff"/><line x1="469.8" y1="523.2" x2="480.6" y2="524.9" stroke="#4626ad"/><circle cx="480.6" cy="524.9" r="1.3" fill="#5f2eff"/><line x1="480.6" y1="524.9" x2="491.9" y2="524.1" stroke="#4a26ad"/><circle cx="491.9" cy="524.1" r="1.3" fill="#652eff"/><line x1="491.9" y1="524.1" x2="502.9" y2="520.7" stroke="#4f26ad"/><circle cx="502.9" cy="520.7" r="1.3" fill="#6c2eff"/><line x1="502.9" y1="520.7" x2="513.0" y2="514.9" stroke="#5326ad"/><circle cx="513.0" cy="514.9" r="1.3" fill="#732eff"/><line x1="513.0" y1="514.9" x2="521.6" y2="507.2" stroke="#5726ad"/><circle cx="521.6" cy="507.2" r="1.3" fill="#7a2eff"/><line x1="521.6" y1="507.2" x2="528.3" y2="497.9" stroke="#5c26ad"/><circle cx="528.3" cy="497.9" r="1.3" fill="#812eff"/><line x1="528.3" y1="497.9" x2="532.6" y2="487.8" stroke="#6026ad"/><circle cx="532.6" cy="487.8" r="1.3" fill="#882eff"/><line x1="532.6" y1="487.8" x2="534.3" y2="477.4" stroke="#6526ad"/><circle cx="534.3" cy="477.4" r="1.3" fill="#8f2eff"/><line x1="534.3" y1="477.4" x2="533.6" y2="467.3" stroke="#6926ad"/><circle cx="533.6" cy="467.3" r="1.2" fill="#962eff"/><line x1="533.6" y1="467.3" x2="530.5" y2="458.3" stroke="#6e26ad"/><circle cx="530.5" cy="458.3" r="1.2" fill="#9d2eff"/><line x1="530.5" y1="458.3" x2="525.2" y2="450.6" stroke="#7226ad"/><circle cx="525.2" cy="450.6" r="1.2" fill="#a42eff"/><line x1="525.2" y1="450.6" x2="518.3" y2="444.8" stroke="#7726ad"/><circle cx="518.3" cy="444.8" r="1.2" fill="#aa2eff"/><line x1="518.3" y1="444.8" x2="510.1" y2="441.0" stroke="#7b26ad"/><circle cx="510.1" cy="441.0" r="1.2" fill="#b12eff"/><line x1="510.1" y1="441.0" x2="501.0" y2="439.3" stroke="#8026ad"/><circle cx="501.0" cy="439.3" r="1.2" fill="#b82eff"/><line x1="501.0" y1="439.3" x2="491.6" y2="439.9" stroke="#8426ad"/><circle cx="491.6" cy="439.9" r="1.2" fill="#bf2eff"/><line x1="491.6" y1="439.9" x2="482.2" y2="442.6" stroke="#8926ad"/><circle cx="482.2" cy="442.6" r="1.2" fill="#c62eff"/><line x1="482.2" y1="442.6" x2="473.4" y2="447.4" stroke="#8d26ad"/><circle cx="473.4" cy="447.4" r="1.2" fill="#cd2eff"/><line x1="473.4" y1="447.4" x2="465.4" y2="454.0" stroke="#9226ad"/><circle cx="465.4" cy="454.0" r="1.2" fill="#d42eff"/><line x1="465.4" y1="454.0" x2="458.6" y2="462.3" stroke="#9626ad"/><circle cx="458.6" cy="462.3" r="1.2" fill="#db2eff"/><line x1="458.6" y1="462.3" x2="453.4" y2="471.9" stroke="#9a26ad"/><circle cx="453.4" cy="471.9" r="1.2" fill="#e22eff"/><line x1="453.4" y1="471.9" x2="450.1" y2="482.6" stroke="#9f26ad"/><circle cx="450.1" cy="482.6" r="1.2" fill="#e92eff"/><line x1="450.1" y1="482.6" x2="449.0" y2="493.9" stroke="#a326ad"/><circle cx="449.0" cy="493.9" r="1.2" fill="#f02eff"/><line x1="449.0" y1="493.9" x2="450.2" y2="505.5" stroke="#a826ad"/><circle cx="450.2" cy="505.5" r="1.2" fill="#f62eff"/><line x1="450.2" y1="505.5" x2="453.9" y2="516.8" stroke="#ac26ad"/><circle cx="453.9" cy="516.8" r="1.2" fill="#fd2eff"/><line x1="453.9" y1="516.8" x2="460.3" y2="527.1" stroke="#ad26aa"/><circle cx="460.3" cy="527.1" r="1.2" fill="#ff2efa"/><circle cx="270.7" cy="457.6" r="2.3" fill="#ffa82e"/><line x1="270.7" y1="457.6" x2="280.1" y2="473.3" stroke="#ad7a26"/><circle cx="280.1" cy="473.3" r="2.5" fill="#ffaf2e"/><line x1="280.1" y1="473.3" x2="295.0" y2="484.7" stroke="#ad7e26"/><circle cx="295.0" cy="484.7" r="2.6" fill="#ffb62e"/><line x1="295.0" y1="484.7" x2="315.4" y2="490.2" stroke="#ad8326"/><circle cx="315.4" cy="490.2" r="2.7" fill="#ffbd2e"/><line x1="315.4" y1="490.2" x2="340.5" y2="488.4" stroke="#ad8726"/><circle cx="340.5" cy="488.4" r="2.9" fill="#ffc42e"/><line x1="340.5" y1="488.4" x2="368.9" y2="478.4" stroke="#ad8c26"/><circle cx="368.9" cy="478.4" r="3.0" fill="#ffcb2e"/><line x1="368.9" y1="478.4" x2="397.8" y2="460.5" stroke="#ad9026"/><circle cx="397.8" cy="460.5" r="3.0" fill="#ffd22e"/><line x1="397.8" y1="460.5" x2="424.4" y2="436.4" stroke="#ad9526"/><circle cx="424.4" cy="436.4" r="3.0" fill="#ffd92e"/><line x1="424.4" y1="436.4" x2="445.7" y2="408.9" stroke="#ad9926"/><circle cx="445.7" cy="408.9" r="3.0" fill="#ffdf2e"/><line x1="445.7" y1="408.9" x2="459.9" y2="381.3" stroke="#ad9d26"/><circle cx="459.9" cy="381.3" r="2.9" fill="#ffe62e"/><line x1="459.9" y1="381.3" x2="466.4" y2="356.6" stroke="#ada226"/><circle cx="466.4" cy="356.6" r="2.7" fill="#ffed2e"/><line x1="466.4" y1="356.6" x2="465.9" y2="336.6" stroke="#ada626"/><circle cx="465.9" cy="336.6" r="2.6" fill="#fff42e"/><line x1="465.9" y1="336.6" x2="459.6" y2="322.3" stroke="#adab26"/><circle cx="459.6" cy="322.3" r="2.4" fill="#fffb2e"/><line x1="459.6" y1="322.3" x2="449.3" y2="313.8" stroke="#abad26"/><circle cx="449.3" cy="313.8" r="2.3" fill="#fcff2e"/><line x1="449.3" y1="313.8" x2="436.3" y2="310.6" stroke="#a7ad26"/><circle cx="436.3" cy="310.6" r="2.2" fill="#f5ff2e"/><line x1="436.3" y1="310.6" x2="422.1" y2="312.0" stroke="#a3ad26"/><circle cx="422.1" cy="312.0" r="2.0" fill="#eeff2e"/><line x1="422.1" y1="312.0" x2="407.5" y2="317.2" stroke="#9ead26"/><circle cx="407.5" cy="317.2" r="1.9" fill="#e7ff2e"/><line x1="407.5" y1="317.2" x2="393.2" y2="325.4" stroke="#9aad26"/><circle cx="393.2" cy="325.4" r="1.9" fill="#e0ff2e"/><line x1="393.2" y1="325.4" x2="379.9" y2="336.0" stroke="#95ad26"/><circle cx="379.9" cy="336.0" r="1.8" fill="#d9ff2e"/><line x1="379.9" y1="336.0" x2="367.9" y2="348.5" stroke="#91ad26"/><circle cx="367.9" cy="348.5" r="1.8" fill="#d3ff2e"/><line x1="367.9" y1="348.5" x2="357.4" y2="362.2" stroke="#8cad26"/><circle cx="357.4" cy="362.2" r="1.7" fill="#ccff2e"/><line x1="357.4" y1="362.2" x2="348.8" y2="376.9" stroke="#88ad26"/><circle cx="348.8" cy="376.9" r="1.7" fill="#c5ff2e"/><line x1="348.8" y1="376.9" x2="342.2" y2="392.1" stroke="#83ad26"/><circle cx="342.2" cy="392.1" r="1.7" fill="#beff2e"/><line x1="342.2" y1="392.1" x2="337.9" y2="407.5" stroke="#7fad26"/><circle cx="337.9" cy="407.5" r="1.8" fill="#b7ff2e"/><line x1="337.9" y1="407.5" x2="335.9" y2="422.6" stroke="#7aad26"/><circle cx="335.9" cy="422.6" r="1.8" fill="#b0ff2e"/><line x1="335.9" y1="422.6" x2="336.6" y2="437.1" stroke="#76ad26"/><circle cx="336.6" cy="437.1" r="1.8" fill="#a9ff2e"/><line x1="336.6" y1="437.1" x2="340.1" y2="450.4" stroke="#71ad26"/><circle cx="340.1" cy="450.4" r="1.9" fill="#a2ff2e"/><line x1="340.1" y1="450.4" x2="346.4" y2="462.1" stroke="#6dad26"/><circle cx="346.4" cy="462.1" r="1.9" fill="#9bff2e"/><line x1="346.4" y1="462.1" x2="355.5" y2="471.5" stroke="#68ad26"/><circle cx="355.5" cy="471.5" r="2.0" fill="#94ff2e"/><line x1="355.5" y1="471.5" x2="367.5" y2="478.1" stroke="#64ad26"/><circle cx="367.5" cy="478.1" r="2.1" fill="#8eff2e"/><line x1="367.5" y1="478.1" x2="381.8" y2="481.3" stroke="#60ad26"/><circle cx="381.8" cy="481.3" r="2.1" fill="#87ff2e"/><line x1="381.8" y1="481.3" x2="398.0" y2="480.7" stroke="#5bad26"/><circle cx="398.0" cy="480.7" r="2.2" fill="#80ff2e"/><line x1="398.0" y1="480.7" x2="415.3" y2="476.0" stroke="#57ad26"/><circle cx="415.3" cy="476.0" r="2.2" fill="#79ff2e"/><line x1="415.3" y1="476.0" x2="432.5" y2="467.2" stroke="#52ad26"/><circle cx="432.5" cy="467.2" r="2.2" fill="#72ff2e"/><line x1="432.5" y1="467.2" x2="448.6" y2="455.0" stroke="#4ead26"/><circle cx="448.6" cy="455.0" r="2.2" fill="#6bff2e"/><line x1="448.6" y1="455.0" x2="462.3" y2="440.0" stroke="#49ad26"/><circle cx="462.3" cy="440.0" r="2.2" fill="#64ff2e"/><line x1="462.3" y1="440.0" x2="472.6" y2="423.6" stroke="#45ad26"/><circle cx="472.6" cy="423.6" r="2.2" fill="#5dff2e"/><line x1="472.6" y1="423.6" x2="478.9" y2="406.9" stroke="#40ad26"/><circle cx="478.9" cy="406.9" r="2.1" fill="#56ff2e"/><line x1="478.9" y1="406.9" x2="480.9" y2="391.3" stroke="#3cad26"/><circle cx="480.9" cy="391.3" r="2.1" fill="#4fff2e"/><line x1="480.9" y1="391.3" x2="478.7" y2="377.9" stroke="#37ad26"/><circle cx="478.7" cy="377.9" r="2.0" fill="#49ff2e"/><line x1="478.7" y1="377.9" x2="472.9" y2="367.4" stroke="#33ad26"/><circle cx="472.9" cy="367.4" r="1.9" fill="#42ff2e"/><line x1="472.9" y1="367.4" x2="464.1" y2="360.4" stroke="#2ead26"/><circle cx="464.1" cy="360.4" r="1.8" fill="#3bff2e"/><line x1="464.1" y1="360.4" x2="453.1" y2="356.9" stroke="#2aad26"/><circle cx="453.1" cy="356.9" r="1.7" fill="#34ff2e"/><line x1="453.1" y1="356.9" x2="440.8" y2="356.9" stroke="#26ad27"/><circle cx="440.8" cy="356.9" r="1.7" fill="#2eff2f"/><line x1="440.8" y1="356.9" x2="427.8" y2="360.3" stroke="#26ad2b"/><circle cx="427.8" cy="360.3" r="1.6" fill="#2eff36"/><line x1="427.8" y1="360.3" x2="414.7" y2="366.6" stroke="#26ad30"/><circle cx="414.7" cy="366.6" r="1.5" fill="#2eff3d"/><line x1="414.7" y1="366.6" x2="402.2" y2="375.6" stroke="#26ad34"/><circle cx="402.2" cy="375.6" r="1.5" fill="#2eff44"/><line x1="402.2" y1="375.6" x2="390.8" y2="386.9" stroke="#26ad39"/><circle cx="390.8" cy="386.9" r="1.5" fill="#2eff4b"/><line x1="390.8" y1="386.9" x2="380.7" y2="400.1" stroke="#26ad3d"/><circle cx="380.7" cy="400.1" r="1.5" fill="#2eff51"/><line x1="380.7" y1="400.1" x2="372.5" y2="414.8" stroke="#26ad42"/><circle cx="372.5" cy="414.8" r="1.5" fill="#2eff58"/><line x1="372.5" y1="414.8" x2="366.5" y2="430.7" stroke="#26ad46"/><circle cx="366.5" cy="430.7" r="1.5" fill="#2eff5f"/><line x1="366.5" y1="430.7" x2="363.2" y2="447.3" stroke="#26ad4b"/><circle cx="363.2" cy="447.3" r="1.5" fill="#2eff66"/><line x1="363.2" y1="447.3" x2="362.8" y2="464.0" stroke="#26ad4f"/><circle cx="362.8" cy="464.0" r="1.5" fill="#2eff6d"/><line x1="362.8" y1="464.0" x2="365.8" y2="480.1" stroke="#26ad53"/><circle cx="365.8" cy="480.1" r="1.6" fill="#2eff74"/><line x1="365.8" y1="480.1" x2="372.5" y2="494.9" stroke="#26ad58"/><circle cx="372.5" cy="494.9" r="1.6" fill="#2eff7b"/><line x1="372.5" y1="494.9" x2="382.9" y2="507.3" stroke="#26ad5c"/><circle cx="382.9" cy="507.3" r="1.7" fill="#2eff82"/><line x1="382.9" y1="507.3" x2="396.9" y2="516.5" stroke="#26ad61"/><circle cx="396.9" cy="516.5" r="1.8" fill="#2eff89"/><line x1="396.9" y1="516.5" x2="414.0" y2="521.4" stroke="#26ad65"/><circle cx="414.0" cy="521.4" r="1.8" fill="#2eff90"/><line x1="414.0" y1="521.4" x2="433.3" y2="521.2" stroke="#26ad6a"/><circle cx="433.3" cy="521.2" r="1.9" fill="#2eff96"/><line x1="433.3" y1="521.2" x2="453.4" y2="515.6" stroke="#26ad6e"/><circle cx="453.4" cy="515.6" r="1.9" fill="#2eff9d"/><line x1="453.4" y1="515.6" x2="472.6" y2="505.0" stroke="#26ad73"/><circle cx="472.6" cy="505.0" r="1.9" fill="#2effa4"/><line x1="472.6" y1="505.0" x2="489.3" y2="490.1" stroke="#26ad77"/><circle cx="489.3" cy="490.1" r="1.9" fill="#2effab"/><line x1="489.3" y1="490.1" x2="502.0" y2="472.5" stroke="#26ad7c"/><circle cx="502.0" cy="472.5" r="1.9" fill="#2effb2"/><line x1="502.0" y1="472.5" x2="509.9" y2="454.0" stroke="#26ad80"/><circle cx="509.9" cy="454.0" r="1.9" fill="#2effb9"/><line x1="509.9" y1="454.0" x2="512.8" y2="436.2" stroke="#26ad85"/><circle cx="512.8" cy="436.2" r="1.8" fill="#2effc0"/><line x1="512.8" y1="436.2" x2="511.2" y2="420.5" stroke="#26ad89"/><circle cx="511.2" cy="420.5" r="1.8" fill="#2effc7"/><line x1="511.2" y1="420.5" x2="505.7" y2="407.8" stroke="#26ad8e"/><circle cx="505.7" cy="407.8" r="1.7" fill="#2effce"/><line x1="505.7" y1="407.8" x2="497.4" y2="398.5" stroke="#26ad92"/><circle cx="497.4" cy="398.5" r="1.6" fill="#2effd5"/><line x1="497.4" y1="398.5" x2="487.1" y2="392.8" stroke="#26ad96"/><circle cx="487.1" cy="392.8" r="1.6" fill="#2effdc"/><line x1="487.1" y1="392.8" x2="475.8" y2="390.4" stroke="#26ad9b"/><circle cx="475.8" cy="390.4" r="1.5" fill="#2effe2"/><line x1="475.8" y1="390.4" x2="464.2" y2="391.1" stroke="#26ad9f"/><circle cx="464.2" cy="391.1" r="1.5" fill="#2effe9"/><line x1="464.2" y1="391.1" x2="452.8" y2="394.4" stroke="#26ada4"/><circle cx="452.8" cy="394.4" r="1.4" fill="#2efff0"/><line x1="452.8" y1="394.4" x2="442.1" y2="399.9" stroke="#26ada8"/><circle cx="442.1" cy="399.9" r="1.4" fill="#2efff7"/><line x1="442.1" y1="399.9" x2="432.5" y2="407.3" stroke="#26adad"/><circle cx="432.5" cy="407.3" r="1.4" fill="#2efffe"/><line x1="432.5" y1="407.3" x2="424.2" y2="416.2" stroke="#26aaad"/><circle cx="424.2" cy="416.2" r="1.3" fill="#2ef9ff"/><line x1="424.2" y1="416.2" x2="417.4" y2="426.3" stroke="#26a5ad"/><circle cx="417.4" cy="426.3" r="1.3" fill="#2ef2ff"/><line x1="417.4" y1="426.3" x2="412.3" y2="437.2" stroke="#26a1ad"/><circle cx="412.3" cy="437.2" r="1.3" fill="#2eebff"/><line x1="412.3" y1="437.2" x2="409.0" y2="448.6" stroke="#269cad"/><circle cx="409.0" cy="448.6" r="1.3" fill="#2ee4ff"/><line x1="409.0" y1="448.6" x2="407.8" y2="460.2" stroke="#2698ad"/><circle cx="407.8" cy="460.2" r="1.4" fill="#2eddff"/><line x1="407.8" y1="460.2" x2="408.6" y2="471.7" stroke="#2693ad"/><circle cx="408.6" cy="471.7" r="1.4" fill="#2ed7ff"/><line x1="408.6" y1="471.7" x2="411.7" y2="482.6" stroke="#268fad"/><circle cx="411.7" cy="482.6" r="1.4" fill="#2ed0ff"/><line x1="411.7" y1="482.6" x2="417.0" y2="492.6" stroke="#268aad"/><circle cx="417.0" cy="492.6" r="1.4" fill="#2ec9ff"/><line x1="417.0" y1="492.6" x2="424.6" y2="501.2" stroke="#2686ad"/><circle cx="424.6" cy="501.2" r="1.5" fill="#2ec2ff"/><line x1="424.6" y1="501.2" x2="434.4" y2="507.8" stroke="#2681ad"/><circle cx="434.4" cy="507.8" r="1.5" fill="#2ebbff"/><line x1="434.4" y1="507.8" x2="446.0" y2="512.1" stroke="#267dad"/><circle cx="446.0" cy="512.1" r="1.5" fill="#2eb4ff"/><line x1="446.0" y1="512.1" x2="459.1" y2="513.4" stroke="#2678ad"/><circle cx="459.1" cy="513.4" r="1.6" fill="#2eadff"/><line x1="459.1" y1="513.4" x2="473.1" y2="511.4" stroke="#2674ad"/><circle cx="473.1" cy="511.4" r="1.6" fill="#2ea6ff"/><line x1="473.1" y1="511.4" x2="487.0" y2="506.1" stroke="#266fad"/><circle cx="487.0" cy="506.1" r="1.6" fill="#2e9fff"/><line x1="487.0" y1="506.1" x2="500.0" y2="497.6" stroke="#266bad"/><circle cx="500.0" cy="497.6" r="1.6" fill="#2e98ff"/><line x1="500.0" y1="497.6" x2="511.0" y2="486.4" stroke="#2667ad"/><circle cx="511.0" cy="486.4" r="1.6" fill="#2e91ff"/><line x1="511.0" y1="486.4" x2="519.3" y2="473.1" stroke="#2662ad"/><circle cx="519.3" cy="473.1" r="1.6" fill="#2e8bff"/><line x1="519.3" y1="473.1" x2="524.1" y2="459.0" stroke="#265ead"/><circle cx="524.1" cy="459.0" r="1.6" fill="#2e84ff"/><line x1="524.1" y1="459.0" x2="525.2" y2="444.9" stroke="#2659ad"/><circle cx="525.2" cy="444.9" r="1.5" fill="#2e7dff"/><line x1="525.2" y1="444.9" x2="522.6" y2="432.1" stroke="#2655ad"/><circle cx="522.6" cy="432.1" r="1.5" fill="#2e76ff"/><line x1="522.6" y1="432.1" x2="516.8" y2="421.3" stroke="#2650ad"/><circle cx="516.8" cy="421.3" r="1.4" fill="#2e6fff"/><line x1="516.8" y1="421.3" x2="508.3" y2="413.1" stroke="#264cad"/><circle cx="508.3" cy="413.1" r="1.4" fill="#2e68ff"/><line x1="508.3" y1="413.1" x2="497.8" y2="408.0" stroke="#2647ad"/><circle cx="497.8" cy="408.0" r="1.3" fill="#2e61ff"/><line x1="497.8" y1="408.0" x2="486.1" y2="405.9" stroke="#2643ad"/><circle cx="486.1" cy="405.9" r="1.3" fill="#2e5aff"/><line x1="486.1" y1="405.9" x2="473.9" y2="406.9" stroke="#263ead"/><circle cx="473.9" cy="406.9" r="1.2" fill="#2e53ff"/><line x1="473.9" y1="406.9" x2="461.9" y2="410.7" stroke="#263aad"/><circle cx="461.9" cy="410.7" r="1.2" fill="#2e4cff"/><line x1="461.9" y1="410.7" x2="450.5" y2="417.0" stroke="#2635ad"/><circle cx="450.5" cy="417.0" r="1.2" fill="#2e46ff"/><line x1="450.5" y1="417.0" x2="440.2" y2="425.6" stroke="#2631ad"/><circle cx="440.2" cy="425.6" r="1.2" fill="#2e3fff"/><line x1="440.2" y1="425.6" x2="431.5" y2="436.1" stroke="#262cad"/><circle cx="431.5" cy="436.1" r="1.2" fill="#2e38ff"/><line x1="431.5" y1="436.1" x2="424.7" y2="448.0" stroke="#2628ad"/><circle cx="424.7" cy="448.0" r="1.2" fill="#2e31ff"/><line x1="424.7" y1="448.0" x2="420.2" y2="461.0" stroke="#2926ad"/><circle cx="420.2" cy="461.0" r="1.2" fill="#322eff"/><line x1="420.2" y1="461.0" x2="418.1" y2="474.6" stroke="#2d26ad"/><circle cx="418.1" cy="474.6" r="1.2" fill="#392eff"/><line x1="418.1" y1="474.6" x2="418.9" y2="488.2" stroke="#3226ad"/><circle cx="418.9" cy="488.2" r="1.2" fill="#402eff"/><line x1="418.9" y1="488.2" x2="422.5" y2="501.3" stroke="#3626ad"/><circle cx="422.5" cy="501.3" r="1.2" fill="#472eff"/><line x1="422.5" y1="501.3" x2="429.0" y2="513.1" stroke="#3b26ad"/><circle cx="429.0" cy="513.1" r="1.3" fill="#4e2eff"/><line x1="429.0" y1="513.1" x2="438.3" y2="523.0" stroke="#3f26ad"/><circle cx="438.3" cy="523.0" r="1.3" fill="#542eff"/><line x1="438.3" y1="523.0" x2="450.1" y2="530.2" stroke="#4426ad"/><circle cx="450.1" cy="530.2" r="1.3" fill="#5b2eff"/><line x1="450.1" y1="530.2" x2="463.8" y2="534.2" stroke="#4826ad"/><circle cx="463.8" cy="534.2" r="1.4" fill="#622eff"/><line x1="463.8" y1="534.2" x2="478.6" y2="534.5" stroke="#4c26ad"/><circle cx="478.6" cy="534.5" r="1.4" fill="#692eff"/><line x1="478.6" y1="534.5" x2="493.4" y2="531.0" stroke="#5126ad"/><circle cx="493.4" cy="531.0" r="1.4" fill="#702eff"/><line x1="493.4" y1="531.0" x2="507.2" y2="524.0" stroke="#5526ad"/><circle cx="507.2" cy="524.0" r="1.4" fill="#772eff"/><line x1="507.2" y1="524.0" x2="518.8" y2="514.0" stroke="#5a26ad"/><circle cx="518.8" cy="514.0" r="1.4" fill="#7e2eff"/><line x1="518.8" y1="514.0" x2="527.6" y2="501.9" stroke="#5e26ad"/><circle cx="527.6" cy="501.9" r="1.4" fill="#852eff"/><line x1="527.6" y1="501.9" x2="533.1" y2="488.9" stroke="#6326ad"/><circle cx="533.1" cy="488.9" r="1.4" fill="#8c2eff"/><line x1="533.1" y1="488.9" x2="535.1" y2="475.9" stroke="#6726ad"/><circle cx="535.1" cy="475.9" r="1.4" fill="#932eff"/><line x1="535.1" y1="475.9" x2="533.9" y2="463.9" stroke="#6c26ad"/><circle cx="533.9" cy="463.9" r="1.3" fill="#992eff"/><line x1="533.9" y1="463.9" x2="529.9" y2="453.5" stroke="#7026ad"/><circle cx="529.9" cy="453.5" r="1.3" fill="#a02eff"/><line x1="529.9" y1="453.5" x2="523.8" y2="445.3" stroke="#7526ad"/><circle cx="523.8" cy="445.3" r="1.3" fill="#a72eff"/><line x1="523.8" y1="445.3" x2="516.0" y2="439.4" stroke="#7926ad"/><circle cx="516.0" cy="439.4" r="1.2" fill="#ae2eff"/><line x1="516.0" y1="439.4" x2="507.3" y2="435.9" stroke="#7e26ad"/><circle cx="507.3" cy="435.9" r="1.2" fill="#b52eff"/><line x1="507.3" y1="435.9" x2="498.2" y2="434.7" stroke="#8226ad"/><circle cx="498.2" cy="434.7" r="1.2" fill="#bc2eff"/><line x1="498.2" y1="434.7" x2="489.0" y2="435.6" stroke="#8726ad"/><circle cx="489.0" cy="435.6" r="1.2" fill="#c32eff"/><line x1="489.0" y1="435.6" x2="480.2" y2="438.5" stroke="#8b26ad"/><circle cx="480.2" cy="438.5" r="1.2" fill="#ca2eff"/><line x1="480.2" y1="438.5" x2="472.1" y2="443.0" stroke="#8f26ad"/><circle cx="472.1" cy="443.0" r="1.2" fill="#d12eff"/><line x1="472.1" y1="443.0" x2="465.0" y2="449.1" stroke="#9426ad"/><circle cx="465.0" cy="449.1" r="1.2" fill="#d82eff"/><line x1="465.0" y1="449.1" x2="459.0" y2="456.4" stroke="#9826ad"/><circle cx="459.0" cy="456.4" r="1.2" fill="#df2eff"/><line x1="459.0" y1="456.4" x2="454.3" y2="464.7" stroke="#9d26ad"/><circle cx="454.3" cy="464.7" r="1.2" fill="#e52eff"/><line x1="454.3" y1="464.7" x2="451.2" y2="473.8" stroke="#a126ad"/><circle cx="451.2" cy="473.8" r="1.2" fill="#ec2eff"/><line x1="451.2" y1="473.8" x2="449.7" y2="483.4" stroke="#a626ad"/><circle cx="449.7" cy="483.4" r="1.2" fill="#f32eff"/><line x1="449.7" y1="483.4" x2="450.1" y2="493.1" stroke="#aa26ad"/><circle cx="450.1" cy="493.1" r="1.2" fill="#fa2eff"/><line x1="450.1" y1="493.1" x2="452.5" y2="502.8" stroke="#ad26ac"/><circle cx="452.5" cy="502.8" r="1.2" fill="#ff2efd"/><line x1="452.5" y1="502.8" x2="456.9" y2="511.9" stroke="#ad26a8"/><circle cx="456.9" cy="511.9" r="1.2" fill="#ff2ef6"/><line x1="456.9" y1="511.9" x2="463.3" y2="520.0" stroke="#ad26a3"/><circle cx="463.3" cy="520.0" r="1.2" fill="#ff2eef"/><line x1="463.3" y1="520.0" x2="471.8" y2="526.6" stroke="#ad269f"/><circle cx="471.8" cy="526.6" r="1.2" fill="#ff2ee8"/><line x1="471.8" y1="526.6" x2="481.9" y2="531.3" stroke="#ad269a"/><circle cx="481.9" cy="531.3" r="1.2" fill="#ff2ee1"/><line x1="481.9" y1="531.3" x2="493.4" y2="533.5" stroke="#ad2696"/><circle cx="493.4" cy="533.5" r="1.2" fill="#ff2eda"/><line x1="493.4" y1="533.5" x2="505.7" y2="532.9" stroke="#ad2691"/><circle cx="505.7" cy="532.9" r="1.2" fill="#ff2ed4"/><line x1="505.7" y1="532.9" x2="518.0" y2="529.2" stroke="#ad268d"/><circle cx="518.0" cy="529.2" r="1.3" fill="#ff2ecd"/><line x1="518.0" y1="529.2" x2="529.4" y2="522.6" stroke="#ad2688"/><circle cx="529.4" cy="522.6" r="1.3" fill="#ff2ec6"/><line x1="529.4" y1="522.6" x2="539.1" y2="513.3" stroke="#ad2684"/><circle cx="539.1" cy="513.3" r="1.3" fill="#ff2ebf"/><line x1="539.1" y1="513.3" x2="546.3" y2="502.0" stroke="#ad267f"/><circle cx="546.3" cy="502.0" r="1.3" fill="#ff2eb8"/><line x1="546.3" y1="502.0" x2="550.3" y2="489.5" stroke="#ad267b"/><circle cx="550.3" cy="489.5" r="1.2" fill="#ff2eb1"/><line x1="550.3" y1="489.5" x2="551.0" y2="476.8" stroke="#ad2676"/><circle cx="551.0" cy="476.8" r="1.2" fill="#ff2eaa"/><line x1="551.0" y1="476.8" x2="548.4" y2="464.9" stroke="#ad2672"/><circle cx="548.4" cy="464.9" r="1.2" fill="#ff2ea3"/><line x1="548.4" y1="464.9" x2="542.9" y2="454.6" stroke="#ad266e"/><circle cx="542.9" cy="454.6" r="1.2" fill="#ff2e9c"/><line x1="542.9" y1="454.6" x2="534.9" y2="446.4" stroke="#ad2669"/><circle cx="534.9" cy="446.4" r="1.2" fill="#ff2e95"/></svg>